<svg width="175" height="78" viewBox="0 -5 175 88" fill="none" xmlns="http://www.w3.org/2000/svg">
<path id="addCartDashedPath" class="addCartDashedPath" d="M0 20C0 8.95429 8.95431 0 20 0H155C166.046 0 175 8.9543 175 20V57.7778C175 68.8235 166.046 77.7778 155 77.7778H20C8.9543 77.7778 0 68.8235 0 57.7778V20Z" fill="black"/>
<path id="addCartOverlayPath" class="addCartOverlayPath" d="M0 20C0 8.95429 8.95431 0 20 0H155C166.046 0 175 8.9543 175 20V57.7778C175 68.8235 166.046 77.7778 155 77.7778H20C8.9543 77.7778 0 68.8235 0 57.7778V20Z" fill="black"/>
<path id="addCartDashedPathGray" class="addCartDashedPathGray" d="M0 20C0 8.95429 8.95431 0 20 0H155C166.046 0 175 8.9543 175 20V57.7778C175 68.8235 166.046 77.7778 155 77.7778H20C8.9543 77.7778 0 68.8235 0 57.7778V20Z" fill="black"/>

<path d="M156.172 47.9389C155.265 47.9389 154.455 47.7545 153.74 47.3856C153.033 47.0166 152.475 46.4824 152.068 45.783C151.668 45.0836 151.469 44.2497 151.469 43.2812V31.7407H154.651V43.2697C154.651 43.8769 154.839 44.3457 155.215 44.6762C155.6 45.0067 156.072 45.172 156.634 45.172C157.049 45.172 157.456 45.0798 157.856 44.8953C158.263 44.7108 158.617 44.4879 158.916 44.2266L160 46.8437C159.477 47.1665 158.874 47.4317 158.19 47.6392C157.514 47.839 156.841 47.9389 156.172 47.9389ZM148.667 38.1393V35.4069H159.308V38.1393H148.667Z" fill="white"/>
<path d="M136.481 47.7547V35.4071H139.606V37.3901H140.044L139.168 38.6122C139.344 37.9512 139.625 37.367 140.009 36.8598C140.401 36.3448 140.87 35.9451 141.416 35.6608C141.962 35.3687 142.561 35.2227 143.214 35.2227C143.875 35.2227 144.463 35.361 144.978 35.6377C145.493 35.9067 145.931 36.2795 146.293 36.756C146.662 37.2249 146.938 37.7629 147.123 38.3701L144.275 39.5345C144.083 39.0887 143.806 38.7275 143.445 38.4508C143.091 38.1741 142.642 38.0357 142.096 38.0357C141.666 38.0357 141.262 38.151 140.886 38.3816C140.517 38.6045 140.221 38.9196 139.998 39.327C139.775 39.7343 139.663 40.207 139.663 40.745V47.7547H136.481Z" fill="white"/>
<path d="M126.485 47.939C125.678 47.939 124.971 47.7776 124.364 47.4548C123.764 47.1243 123.296 46.6746 122.957 46.1059C122.619 45.5371 122.45 44.8915 122.45 44.169C122.45 43.4235 122.642 42.7548 123.027 42.163C123.411 41.5711 123.968 41.1061 124.698 40.768C125.436 40.4221 126.335 40.2492 127.396 40.2492H130.244V42.3013H127.95C127.527 42.3013 127.127 42.359 126.751 42.4743C126.382 42.5895 126.078 42.774 125.84 43.0276C125.609 43.2813 125.494 43.6079 125.494 44.0076C125.494 44.315 125.567 44.5841 125.713 44.8146C125.867 45.0375 126.078 45.2143 126.347 45.345C126.616 45.4679 126.923 45.5294 127.269 45.5294C127.677 45.5294 128.076 45.4449 128.468 45.2758C128.868 45.099 129.198 44.8531 129.46 44.5379C129.729 44.2151 129.863 43.8308 129.863 43.385V41.9324L129.713 41.3559V39.7534C129.713 39.5305 129.683 39.3076 129.621 39.0847C129.567 38.8542 129.468 38.6466 129.321 38.4622C129.175 38.27 128.968 38.1201 128.699 38.0125C128.43 37.8972 128.088 37.8396 127.673 37.8396C127.289 37.8396 126.889 37.8857 126.474 37.9779C126.059 38.0625 125.655 38.1855 125.263 38.3469C124.879 38.5006 124.537 38.6812 124.237 38.8887L123.188 36.3639C123.58 36.1256 124.037 35.9219 124.56 35.7529C125.09 35.5761 125.64 35.4416 126.209 35.3493C126.785 35.2494 127.342 35.1995 127.88 35.1995C128.972 35.1995 129.875 35.3955 130.59 35.7874C131.312 36.1794 131.846 36.7174 132.192 37.4015C132.546 38.0779 132.723 38.8465 132.723 39.7073V43.6156C132.723 44.046 132.776 44.3881 132.884 44.6417C132.992 44.8877 133.168 45.0567 133.414 45.149L133.668 45.2412L132.55 47.939L132.135 47.8006C131.566 47.6085 131.097 47.328 130.728 46.959C130.359 46.5901 130.14 46.1981 130.071 45.7831L130.82 46.2442H129.448L130.359 45.956C130.105 46.4863 129.625 46.9513 128.918 47.351C128.211 47.743 127.4 47.939 126.485 47.939Z" fill="white"/>
<path d="M116.352 47.9388C114.837 47.9388 113.512 47.5737 112.374 46.8436C111.236 46.1134 110.349 45.095 109.711 43.7884C109.073 42.4741 108.754 40.9561 108.754 39.2344C108.754 37.5205 109.065 36.014 109.688 34.7151C110.318 33.4161 111.194 32.4016 112.316 31.6714C113.439 30.9413 114.745 30.5762 116.236 30.5762C116.92 30.5762 117.658 30.7107 118.45 30.9797C119.241 31.2487 119.922 31.6023 120.49 32.0404L119.268 34.9802C118.969 34.5806 118.538 34.2501 117.977 33.9888C117.424 33.7197 116.851 33.5852 116.259 33.5852C115.398 33.5852 114.649 33.8235 114.011 34.3C113.373 34.7766 112.877 35.4376 112.524 36.283C112.178 37.1285 112.005 38.1046 112.005 39.2114C112.005 40.3412 112.186 41.3366 112.547 42.1974C112.908 43.0582 113.415 43.7307 114.069 44.215C114.722 44.6915 115.487 44.9298 116.363 44.9298C116.932 44.9298 117.489 44.7991 118.035 44.5378C118.588 44.2764 119.015 43.9421 119.314 43.5347L120.537 46.4631C119.983 46.9012 119.318 47.2586 118.542 47.5353C117.773 47.8043 117.043 47.9388 116.352 47.9388Z" fill="white"/>
<path d="M88.0363 47.9389C86.9065 47.9389 85.9188 47.6776 85.0734 47.155C84.2279 46.6246 83.5707 45.8829 83.1019 44.9299C82.6407 43.9691 82.4102 42.8508 82.4102 41.5749C82.4102 40.2991 82.6407 39.1846 83.1019 38.2315C83.5707 37.2785 84.2279 36.5368 85.0734 36.0064C85.9188 35.4761 86.9065 35.2109 88.0363 35.2109C89.1661 35.2109 90.1538 35.4761 90.9992 36.0064C91.8447 36.5368 92.498 37.2785 92.9592 38.2315C93.428 39.1846 93.6624 40.2991 93.6624 41.5749C93.6624 42.8508 93.428 43.9691 92.9592 44.9299C92.498 45.8829 91.8447 46.6246 90.9992 47.155C90.1538 47.6776 89.1661 47.9389 88.0363 47.9389ZM88.0363 45.1835C88.5666 45.1835 89.0239 45.0375 89.4082 44.7454C89.8002 44.4457 90.1 44.0268 90.3075 43.4887C90.515 42.943 90.6188 42.3051 90.6188 41.5749C90.6188 40.8371 90.515 40.1991 90.3075 39.6611C90.1 39.1231 89.8002 38.7081 89.4082 38.416C89.0239 38.1162 88.5666 37.9664 88.0363 37.9664C87.506 37.9664 87.0448 38.1162 86.6528 38.416C86.2685 38.7081 85.9726 39.1231 85.7651 39.6611C85.5576 40.1991 85.4538 40.8371 85.4538 41.5749C85.4538 42.3051 85.5576 42.943 85.7651 43.4887C85.9726 44.0268 86.2685 44.4457 86.6528 44.7454C87.0448 45.0375 87.506 45.1835 88.0363 45.1835Z" fill="white"/>
<path d="M73.1063 47.7545V33.2279H76.4036V47.7545H73.1063ZM68.8867 33.7237V30.7607H80.6232V33.7237H68.8867Z" fill="white"/>
<path d="M53.184 47.9391C52.5076 47.6701 51.9465 47.3357 51.5007 46.9361C51.0626 46.5364 50.8013 46.1329 50.7168 45.7255L50.9819 45.9561H50.0366L50.5093 44.515V37.8166L50.002 36.5485H50.2671V30H53.4261V43.708C53.4261 44.0538 53.5029 44.369 53.6567 44.6533C53.8181 44.93 54.0294 45.126 54.2908 45.2413L53.184 47.9391ZM47.1082 47.9391C46.1705 47.9391 45.3481 47.6778 44.641 47.1551C43.9416 46.6325 43.3997 45.8946 43.0154 44.9416C42.6311 43.9885 42.439 42.8625 42.439 41.5636C42.439 40.28 42.635 39.1617 43.0269 38.2086C43.4189 37.2556 43.9685 36.5177 44.6756 35.9951C45.3904 35.4724 46.2243 35.2111 47.1774 35.2111C48.1228 35.2111 48.9413 35.4724 49.633 35.9951C50.3325 36.5177 50.8743 37.2594 51.2586 38.2202C51.6506 39.1732 51.8466 40.2877 51.8466 41.5636C51.8466 42.8548 51.6506 43.977 51.2586 44.93C50.8666 45.8831 50.3171 46.6248 49.61 47.1551C48.9029 47.6778 48.069 47.9391 47.1082 47.9391ZM47.9268 45.2413C48.4263 45.2413 48.8606 45.0914 49.2295 44.7917C49.6061 44.4842 49.8982 44.0538 50.1057 43.5004C50.3133 42.947 50.417 42.3014 50.417 41.5636C50.417 40.8257 50.3171 40.1839 50.1173 39.6382C49.9174 39.0925 49.633 38.6698 49.2641 38.37C48.9029 38.0703 48.4763 37.9204 47.9844 37.9204C47.4848 37.9204 47.0467 38.0703 46.6701 38.37C46.3012 38.6698 46.0129 39.0964 45.8054 39.6498C45.6056 40.1955 45.5057 40.8334 45.5057 41.5636C45.5057 42.3014 45.6017 42.947 45.7939 43.5004C45.9937 44.0538 46.2743 44.4842 46.6355 44.7917C47.0044 45.0914 47.4349 45.2413 47.9268 45.2413Z" fill="white"/>
<path d="M39.9027 47.9391C39.2264 47.6701 38.6653 47.3357 38.2195 46.9361C37.7814 46.5364 37.5201 46.1329 37.4355 45.7255L37.7007 45.9561H36.7553L37.228 44.515V37.8166L36.7207 36.5485H36.9859V30H40.1448V43.708C40.1448 44.0538 40.2217 44.369 40.3754 44.6533C40.5368 44.93 40.7482 45.126 41.0095 45.2413L39.9027 47.9391ZM33.827 47.9391C32.8893 47.9391 32.0669 47.6778 31.3598 47.1551C30.6603 46.6325 30.1185 45.8946 29.7342 44.9416C29.3499 43.9885 29.1577 42.8625 29.1577 41.5636C29.1577 40.28 29.3537 39.1617 29.7457 38.2086C30.1377 37.2556 30.6872 36.5177 31.3943 35.9951C32.1091 35.4724 32.9431 35.2111 33.8961 35.2111C34.8415 35.2111 35.6601 35.4724 36.3518 35.9951C37.0512 36.5177 37.5931 37.2594 37.9774 38.2202C38.3694 39.1732 38.5654 40.2877 38.5654 41.5636C38.5654 42.8548 38.3694 43.977 37.9774 44.93C37.5854 45.8831 37.0359 46.6248 36.3287 47.1551C35.6216 47.6778 34.7877 47.9391 33.827 47.9391ZM34.6455 45.2413C35.1451 45.2413 35.5794 45.0914 35.9483 44.7917C36.3249 44.4842 36.617 44.0538 36.8245 43.5004C37.032 42.947 37.1358 42.3014 37.1358 41.5636C37.1358 40.8257 37.0359 40.1839 36.836 39.6382C36.6362 39.0925 36.3518 38.6698 35.9829 38.37C35.6216 38.0703 35.1951 37.9204 34.7032 37.9204C34.2036 37.9204 33.7655 38.0703 33.3889 38.37C33.0199 38.6698 32.7317 39.0964 32.5242 39.6498C32.3243 40.1955 32.2244 40.8334 32.2244 41.5636C32.2244 42.3014 32.3205 42.947 32.5126 43.5004C32.7125 44.0538 32.993 44.4842 33.3543 44.7917C33.7232 45.0914 34.1536 45.2413 34.6455 45.2413Z" fill="white"/>
<path d="M15 47.7545L20.0036 30.7607H23.2548L28.2583 47.7545H24.9034L23.7159 43.2005L23.4623 41.9439L21.6753 34.7382H21.583L19.7961 41.9439L19.5424 43.2005L18.3549 47.7545H15ZM18.1128 44.0652V41.2867H25.1455V44.0652H18.1128Z" fill="white"/>
</svg>
