<svg width="175" height="78" viewBox="0 -5 175 88" fill="none" xmlns="http://www.w3.org/2000/svg">
<path id="addCartDashedPath" class="addCartDashedPath" d="M0 20C0 8.95429 8.95431 0 20 0H155C166.046 0 175 8.9543 175 20V57.7778C175 68.8235 166.046 77.7778 155 77.7778H20C8.9543 77.7778 0 68.8235 0 57.7778V20Z" fill="black"/>
<path id="addCartOverlayPath" class="addCartOverlayPath" d="M0 20C0 8.95429 8.95431 0 20 0H155C166.046 0 175 8.9543 175 20V57.7778C175 68.8235 166.046 77.7778 155 77.7778H20C8.9543 77.7778 0 68.8235 0 57.7778V20Z" fill="black"/>
<path id="addCartDashedPathGray" class="addCartDashedPathGray" d="M0 20C0 8.95429 8.95431 0 20 0H155C166.046 0 175 8.9543 175 20V57.7778C175 68.8235 166.046 77.7778 155 77.7778H20C8.9543 77.7778 0 68.8235 0 57.7778V20Z" fill="black"/>


<path d="M119.733 46.748L117.992 35.3057H120.78L121.282 41.7907L121.507 43.7672H121.581L121.998 42.4424L123.237 38.5963H124.755L125.994 42.4424L126.41 43.7672H126.485L126.71 41.7907L127.212 35.3057H130L128.237 46.748H125.588L124.904 44.6646L124.028 41.9723H123.964L123.088 44.6646L122.415 46.748H119.733Z" fill="white"/>
<path d="M111.688 46.9186C110.641 46.9186 109.726 46.6765 108.943 46.1922C108.159 45.7007 107.55 45.0134 107.116 44.1302C106.688 43.2399 106.475 42.2035 106.475 41.0212C106.475 39.8389 106.688 38.8061 107.116 37.9229C107.55 37.0397 108.159 36.3524 108.943 35.861C109.726 35.3695 110.641 35.1238 111.688 35.1238C112.735 35.1238 113.651 35.3695 114.434 35.861C115.217 36.3524 115.823 37.0397 116.25 37.9229C116.685 38.8061 116.902 39.8389 116.902 41.0212C116.902 42.2035 116.685 43.2399 116.25 44.1302C115.823 45.0134 115.217 45.7007 114.434 46.1922C113.651 46.6765 112.735 46.9186 111.688 46.9186ZM111.688 44.3652C112.18 44.3652 112.604 44.2299 112.96 43.9592C113.323 43.6815 113.601 43.2933 113.793 42.7947C113.985 42.289 114.081 41.6979 114.081 41.0212C114.081 40.3375 113.985 39.7463 113.793 39.2477C113.601 38.7491 113.323 38.3645 112.96 38.0939C112.604 37.8161 112.18 37.6772 111.688 37.6772C111.197 37.6772 110.769 37.8161 110.406 38.0939C110.05 38.3645 109.776 38.7491 109.584 39.2477C109.391 39.7463 109.295 40.3375 109.295 41.0212C109.295 41.6979 109.391 42.289 109.584 42.7947C109.776 43.2933 110.05 43.6815 110.406 43.9592C110.769 44.2299 111.197 44.3652 111.688 44.3652Z" fill="white"/>
<path d="M94.1875 46.7479V31H96.2708L100.908 39.312L101.709 40.8825H101.794L101.709 37.7308V31H104.572V46.7479H102.478L97.8627 38.3397L97.0614 36.7051H96.9973L97.0507 39.9957V46.7479H94.1875Z" fill="white"/>
<path d="M71.976 51.4061C71.5842 51.4061 71.1818 51.3633 70.7687 51.2779C70.3556 51.1924 70.0209 51.0998 69.7644 51.0001L70.7687 48.5856C70.9397 48.671 71.1213 48.7423 71.3136 48.7992C71.513 48.8562 71.6946 48.8847 71.8585 48.8847C72.2217 48.8847 72.5102 48.7957 72.7238 48.6176C72.9375 48.4467 73.0978 48.2473 73.2046 48.0193C73.3115 47.7914 73.3862 47.5955 73.429 47.4317L73.9097 45.701L73.7495 47.2822L69.1021 35.3057H72.211L74.3371 41.8334L74.8926 43.6924H74.9674L75.4909 41.8334L77.4567 35.3057H80.5444L75.9397 48.1155C75.8328 48.4218 75.6939 48.7636 75.523 49.1411C75.3592 49.5186 75.1312 49.8783 74.8392 50.2202C74.5543 50.5621 74.1804 50.8434 73.7174 51.0642C73.2616 51.2921 72.6811 51.4061 71.976 51.4061Z" fill="white"/>
<path d="M61.5066 46.9189C60.7017 46.9189 60.0002 46.748 59.4019 46.4061C58.8107 46.0571 58.3513 45.5692 58.0237 44.9424C57.696 44.3156 57.5322 43.5785 57.5322 42.7309V35.3057H60.4809V42.4424C60.4809 43.0193 60.6412 43.4859 60.9617 43.842C61.2893 44.191 61.7274 44.3691 62.2758 44.3762C62.6462 44.3762 62.9703 44.2978 63.248 44.1411C63.5329 43.9773 63.7537 43.753 63.9104 43.4681C64.0742 43.176 64.1562 42.8342 64.1562 42.4424V35.3057H67.1049V43.1689C67.1049 43.404 67.2117 43.6354 67.4254 43.8634C67.6391 44.0913 67.924 44.2765 68.2801 44.4189L67.2438 46.9189C66.4959 46.691 65.8798 46.3776 65.3955 45.9787C64.9183 45.5728 64.6761 45.1525 64.669 44.7181L65.3634 45.3804H64.0386L65.4168 44.5044C64.9752 45.2522 64.3948 45.8434 63.6754 46.2779C62.9631 46.7052 62.2402 46.9189 61.5066 46.9189Z" fill="white"/>
<path d="M47.7137 46.7479V44.0555H50.7479C51.3105 44.0555 51.7664 43.8668 52.1154 43.4893C52.4644 43.1118 52.6389 42.599 52.6389 41.9508C52.6389 41.3312 52.4573 40.8433 52.094 40.4872C51.7379 40.131 51.2642 39.953 50.6731 39.953H47.6389V37.5812H50.0214C50.349 37.5812 50.6375 37.4957 50.8867 37.3248C51.1432 37.1538 51.3426 36.9188 51.485 36.6197C51.6275 36.3134 51.6987 35.9679 51.6987 35.5833C51.6987 34.9922 51.5385 34.5292 51.2179 34.1944C50.8974 33.8597 50.4843 33.6923 49.9786 33.6923H47.6389V31H49.8718C50.8618 31 51.7058 31.1745 52.4038 31.5235C53.1018 31.8654 53.6325 32.339 53.9957 32.9444C54.3661 33.5427 54.5513 34.2265 54.5513 34.9957C54.5513 35.6083 54.4409 36.1816 54.2201 36.7158C53.9993 37.25 53.7073 37.713 53.344 38.1047C52.9808 38.4964 52.589 38.7742 52.1688 38.938L52.1795 38.1902C52.792 38.3255 53.3547 38.5605 53.8675 38.8953C54.3875 39.2229 54.8006 39.6645 55.1068 40.2201C55.4202 40.7685 55.5769 41.4416 55.5769 42.2393C55.5769 43.1296 55.3775 43.9131 54.9786 44.5897C54.5869 45.2664 54.0456 45.797 53.3547 46.1816C52.6709 46.5591 51.8839 46.7479 50.9936 46.7479H47.7137ZM45 46.7479V31H47.9701V46.7479H45Z" fill="white"/>
</svg>
