<svg width="27" height="28" viewBox="0 0 27 30" fill="none" xmlns="http://www.w3.org/2000/svg">
<path id="dashedPath" class="large-dashed-path" d="M26.7109 19.1133L26.1641 28H0.636719V26.4766C1.09245 26.4375 1.6263 26.3789 2.23828 26.3008C2.85026 26.2096 3.25391 26.125 3.44922 26.0469C3.91797 25.8646 4.24349 25.6107 4.42578 25.2852C4.60807 24.9596 4.69922 24.543 4.69922 24.0352V4.48438C4.69922 4.01562 4.6276 3.63151 4.48438 3.33203C4.34115 3.01953 3.99609 2.73958 3.44922 2.49219C3.04557 2.3099 2.55729 2.16667 1.98438 2.0625C1.42448 1.94531 0.97526 1.86068 0.636719 1.80859V0.285156H15.8516V1.80859C15.4349 1.84766 14.9401 1.90625 14.3672 1.98438C13.8073 2.04948 13.319 2.14714 12.9023 2.27734C12.3945 2.44661 12.056 2.71354 11.8867 3.07812C11.7174 3.42969 11.6328 3.83333 11.6328 4.28906V22.5117C11.6328 23.3711 11.6914 24.0482 11.8086 24.543C11.9258 25.0378 12.1536 25.4023 12.4922 25.6367C12.8307 25.8841 13.2995 26.0469 13.8984 26.125C14.5104 26.1901 15.3503 26.2227 16.418 26.2227C17.4596 26.2227 18.4688 26.1641 19.4453 26.0469C20.4349 25.9167 21.1445 25.6432 21.5742 25.2266C22.2383 24.5625 22.9154 23.6315 23.6055 22.4336C24.3086 21.2227 24.8685 20.1159 25.2852 19.1133H26.7109Z" fill="white"/>

<path id="overlayPath" class="large-overlay-path" d="M26.7109 19.1133L26.1641 28H0.636719V26.4766C1.09245 26.4375 1.6263 26.3789 2.23828 26.3008C2.85026 26.2096 3.25391 26.125 3.44922 26.0469C3.91797 25.8646 4.24349 25.6107 4.42578 25.2852C4.60807 24.9596 4.69922 24.543 4.69922 24.0352V4.48438C4.69922 4.01562 4.6276 3.63151 4.48438 3.33203C4.34115 3.01953 3.99609 2.73958 3.44922 2.49219C3.04557 2.3099 2.55729 2.16667 1.98438 2.0625C1.42448 1.94531 0.97526 1.86068 0.636719 1.80859V0.285156H15.8516V1.80859C15.4349 1.84766 14.9401 1.90625 14.3672 1.98438C13.8073 2.04948 13.319 2.14714 12.9023 2.27734C12.3945 2.44661 12.056 2.71354 11.8867 3.07812C11.7174 3.42969 11.6328 3.83333 11.6328 4.28906V22.5117C11.6328 23.3711 11.6914 24.0482 11.8086 24.543C11.9258 25.0378 12.1536 25.4023 12.4922 25.6367C12.8307 25.8841 13.2995 26.0469 13.8984 26.125C14.5104 26.1901 15.3503 26.2227 16.418 26.2227C17.4596 26.2227 18.4688 26.1641 19.4453 26.0469C20.4349 25.9167 21.1445 25.6432 21.5742 25.2266C22.2383 24.5625 22.9154 23.6315 23.6055 22.4336C24.3086 21.2227 24.8685 20.1159 25.2852 19.1133H26.7109Z" fill="white"/>

<path id="dashedPathGray" class="large-dashed-path-gray" d="M26.7109 19.1133L26.1641 28H0.636719V26.4766C1.09245 26.4375 1.6263 26.3789 2.23828 26.3008C2.85026 26.2096 3.25391 26.125 3.44922 26.0469C3.91797 25.8646 4.24349 25.6107 4.42578 25.2852C4.60807 24.9596 4.69922 24.543 4.69922 24.0352V4.48438C4.69922 4.01562 4.6276 3.63151 4.48438 3.33203C4.34115 3.01953 3.99609 2.73958 3.44922 2.49219C3.04557 2.3099 2.55729 2.16667 1.98438 2.0625C1.42448 1.94531 0.97526 1.86068 0.636719 1.80859V0.285156H15.8516V1.80859C15.4349 1.84766 14.9401 1.90625 14.3672 1.98438C13.8073 2.04948 13.319 2.14714 12.9023 2.27734C12.3945 2.44661 12.056 2.71354 11.8867 3.07812C11.7174 3.42969 11.6328 3.83333 11.6328 4.28906V22.5117C11.6328 23.3711 11.6914 24.0482 11.8086 24.543C11.9258 25.0378 12.1536 25.4023 12.4922 25.6367C12.8307 25.8841 13.2995 26.0469 13.8984 26.125C14.5104 26.1901 15.3503 26.2227 16.418 26.2227C17.4596 26.2227 18.4688 26.1641 19.4453 26.0469C20.4349 25.9167 21.1445 25.6432 21.5742 25.2266C22.2383 24.5625 22.9154 23.6315 23.6055 22.4336C24.3086 21.2227 24.8685 20.1159 25.2852 19.1133H26.7109Z" fill="white"/>
</svg>
