<svg width="40" height="28" viewBox="0 0 40 29" fill="none" xmlns="http://www.w3.org/2000/svg">
<path id="dashedPath" class="medium-dashed-path" d="M39.4648 28H24.4453V26.4766C24.888 26.4375 25.4284 26.3724 26.0664 26.2812C26.7174 26.1901 27.1602 26.0924 27.3945 25.9883C27.8763 25.793 28.2214 25.526 28.4297 25.1875C28.638 24.849 28.7422 24.4193 28.7422 23.8984V3.19531L19.2109 27.5508H16.75C16.6328 27.1211 16.3398 26.2682 15.8711 24.9922C15.4154 23.7161 15.0443 22.694 14.7578 21.9258L7.74609 2.88281V19.7383C7.74609 21.3529 7.85026 22.5833 8.05859 23.4297C8.27995 24.263 8.63151 24.875 9.11328 25.2656C9.4388 25.5391 10.0182 25.7995 10.8516 26.0469C11.6979 26.2943 12.2904 26.4375 12.6289 26.4766V28H0.714844V26.4766C1.04036 26.4375 1.56771 26.3529 2.29688 26.2227C3.03906 26.0794 3.64453 25.8385 4.11328 25.5C4.63411 25.1354 4.98568 24.5234 5.16797 23.6641C5.35026 22.7917 5.44141 21.5547 5.44141 19.9531V6.22266C5.44141 5.38932 5.33724 4.69922 5.12891 4.15234C4.92057 3.59245 4.60807 3.14974 4.19141 2.82422C3.67057 2.42057 3.13672 2.16016 2.58984 2.04297C2.04297 1.92578 1.48958 1.84766 0.929688 1.80859V0.285156H13.6836L20.5195 18.5859L26.2812 3.72266C26.4766 3.17578 26.6654 2.52474 26.8477 1.76953C27.0299 1.01432 27.1276 0.519531 27.1406 0.285156H39.4258V1.80859C39.0091 1.83464 38.5729 1.88672 38.1172 1.96484C37.6615 2.04297 37.2253 2.14714 36.8086 2.27734C36.3008 2.44661 35.9622 2.71354 35.793 3.07812C35.6367 3.44271 35.5586 3.84635 35.5586 4.28906V23.918C35.5586 24.3867 35.6367 24.7839 35.793 25.1094C35.9622 25.4219 36.3008 25.6953 36.8086 25.9297C37.069 26.0469 37.4922 26.1576 38.0781 26.2617C38.6771 26.3659 39.1393 26.4375 39.4648 26.4766V28Z" fill="white"/>

<path id="overlayPath" class="medium-overlay-path" d="M39.4648 28H24.4453V26.4766C24.888 26.4375 25.4284 26.3724 26.0664 26.2812C26.7174 26.1901 27.1602 26.0924 27.3945 25.9883C27.8763 25.793 28.2214 25.526 28.4297 25.1875C28.638 24.849 28.7422 24.4193 28.7422 23.8984V3.19531L19.2109 27.5508H16.75C16.6328 27.1211 16.3398 26.2682 15.8711 24.9922C15.4154 23.7161 15.0443 22.694 14.7578 21.9258L7.74609 2.88281V19.7383C7.74609 21.3529 7.85026 22.5833 8.05859 23.4297C8.27995 24.263 8.63151 24.875 9.11328 25.2656C9.4388 25.5391 10.0182 25.7995 10.8516 26.0469C11.6979 26.2943 12.2904 26.4375 12.6289 26.4766V28H0.714844V26.4766C1.04036 26.4375 1.56771 26.3529 2.29688 26.2227C3.03906 26.0794 3.64453 25.8385 4.11328 25.5C4.63411 25.1354 4.98568 24.5234 5.16797 23.6641C5.35026 22.7917 5.44141 21.5547 5.44141 19.9531V6.22266C5.44141 5.38932 5.33724 4.69922 5.12891 4.15234C4.92057 3.59245 4.60807 3.14974 4.19141 2.82422C3.67057 2.42057 3.13672 2.16016 2.58984 2.04297C2.04297 1.92578 1.48958 1.84766 0.929688 1.80859V0.285156H13.6836L20.5195 18.5859L26.2812 3.72266C26.4766 3.17578 26.6654 2.52474 26.8477 1.76953C27.0299 1.01432 27.1276 0.519531 27.1406 0.285156H39.4258V1.80859C39.0091 1.83464 38.5729 1.88672 38.1172 1.96484C37.6615 2.04297 37.2253 2.14714 36.8086 2.27734C36.3008 2.44661 35.9622 2.71354 35.793 3.07812C35.6367 3.44271 35.5586 3.84635 35.5586 4.28906V23.918C35.5586 24.3867 35.6367 24.7839 35.793 25.1094C35.9622 25.4219 36.3008 25.6953 36.8086 25.9297C37.069 26.0469 37.4922 26.1576 38.0781 26.2617C38.6771 26.3659 39.1393 26.4375 39.4648 26.4766V28Z" fill="white"/>

<path id="dashedPathGray" class="medium-dashed-path-gray" d="M39.4648 28H24.4453V26.4766C24.888 26.4375 25.4284 26.3724 26.0664 26.2812C26.7174 26.1901 27.1602 26.0924 27.3945 25.9883C27.8763 25.793 28.2214 25.526 28.4297 25.1875C28.638 24.849 28.7422 24.4193 28.7422 23.8984V3.19531L19.2109 27.5508H16.75C16.6328 27.1211 16.3398 26.2682 15.8711 24.9922C15.4154 23.7161 15.0443 22.694 14.7578 21.9258L7.74609 2.88281V19.7383C7.74609 21.3529 7.85026 22.5833 8.05859 23.4297C8.27995 24.263 8.63151 24.875 9.11328 25.2656C9.4388 25.5391 10.0182 25.7995 10.8516 26.0469C11.6979 26.2943 12.2904 26.4375 12.6289 26.4766V28H0.714844V26.4766C1.04036 26.4375 1.56771 26.3529 2.29688 26.2227C3.03906 26.0794 3.64453 25.8385 4.11328 25.5C4.63411 25.1354 4.98568 24.5234 5.16797 23.6641C5.35026 22.7917 5.44141 21.5547 5.44141 19.9531V6.22266C5.44141 5.38932 5.33724 4.69922 5.12891 4.15234C4.92057 3.59245 4.60807 3.14974 4.19141 2.82422C3.67057 2.42057 3.13672 2.16016 2.58984 2.04297C2.04297 1.92578 1.48958 1.84766 0.929688 1.80859V0.285156H13.6836L20.5195 18.5859L26.2812 3.72266C26.4766 3.17578 26.6654 2.52474 26.8477 1.76953C27.0299 1.01432 27.1276 0.519531 27.1406 0.285156H39.4258V1.80859C39.0091 1.83464 38.5729 1.88672 38.1172 1.96484C37.6615 2.04297 37.2253 2.14714 36.8086 2.27734C36.3008 2.44661 35.9622 2.71354 35.793 3.07812C35.6367 3.44271 35.5586 3.84635 35.5586 4.28906V23.918C35.5586 24.3867 35.6367 24.7839 35.793 25.1094C35.9622 25.4219 36.3008 25.6953 36.8086 25.9297C37.069 26.0469 37.4922 26.1576 38.0781 26.2617C38.6771 26.3659 39.1393 26.4375 39.4648 26.4766V28Z" fill="white"/>
</svg>
