<svg width="24" height="30" viewBox="0 0 24 31" fill="none" xmlns="http://www.w3.org/2000/svg">

<path id="dashedPath" class="small-dashed-path" d="M12.4805 29.7422C10.7878 29.7422 9.20573 29.5339 7.73438 29.1172C6.27604 28.7005 5.03906 28.2057 4.02344 27.6328L2.67578 29H1.01562L0.761719 18.9805H2.44141C2.81901 19.931 3.30078 20.9336 3.88672 21.9883C4.47266 23.043 5.14974 23.987 5.91797 24.8203C6.71224 25.6927 7.59766 26.4023 8.57422 26.9492C9.5638 27.4961 10.7161 27.7695 12.0312 27.7695C13.8021 27.7695 15.1562 27.3398 16.0938 26.4805C17.0443 25.6081 17.5195 24.5143 17.5195 23.1992C17.5195 22.1185 17.1159 21.2135 16.3086 20.4844C15.5143 19.7422 14.2773 19.1042 12.5977 18.5703C11.5039 18.2188 10.4948 17.8932 9.57031 17.5938C8.65885 17.2943 7.79948 16.9883 6.99219 16.6758C5.13021 15.9336 3.74349 14.8724 2.83203 13.4922C1.93359 12.112 1.48438 10.569 1.48438 8.86328C1.48438 7.78255 1.71875 6.7474 2.1875 5.75781C2.65625 4.75521 3.33984 3.85677 4.23828 3.0625C5.09766 2.32031 6.19792 1.71484 7.53906 1.24609C8.88021 0.777344 10.3385 0.542969 11.9141 0.542969C13.4505 0.542969 14.8893 0.757812 16.2305 1.1875C17.5716 1.60417 18.6263 2.02734 19.3945 2.45703L20.5859 1.28516H22.2852L22.4414 10.7383H20.7617C20.3711 9.72266 19.9089 8.6875 19.375 7.63281C18.8542 6.5651 18.3008 5.67969 17.7148 4.97656C17.0768 4.22135 16.3411 3.6224 15.5078 3.17969C14.6745 2.72396 13.6979 2.49609 12.5781 2.49609C11.1719 2.49609 10.0195 2.89323 9.12109 3.6875C8.23568 4.48177 7.79297 5.46484 7.79297 6.63672C7.79297 7.74349 8.17708 8.64844 8.94531 9.35156C9.72656 10.0547 10.9375 10.6732 12.5781 11.207C13.5417 11.5326 14.5247 11.8581 15.5273 12.1836C16.5299 12.5091 17.4219 12.8216 18.2031 13.1211C20.0911 13.8503 21.5234 14.8594 22.5 16.1484C23.4896 17.4245 23.9844 19.013 23.9844 20.9141C23.9844 22.112 23.7044 23.2708 23.1445 24.3906C22.5846 25.5104 21.8294 26.4414 20.8789 27.1836C19.8372 28.0039 18.6328 28.6354 17.2656 29.0781C15.8984 29.5208 14.3034 29.7422 12.4805 29.7422Z" fill="white"/>

<path id="overlayPath" class="small-overlay-path" d="M12.4805 29.7422C10.7878 29.7422 9.20573 29.5339 7.73438 29.1172C6.27604 28.7005 5.03906 28.2057 4.02344 27.6328L2.67578 29H1.01562L0.761719 18.9805H2.44141C2.81901 19.931 3.30078 20.9336 3.88672 21.9883C4.47266 23.043 5.14974 23.987 5.91797 24.8203C6.71224 25.6927 7.59766 26.4023 8.57422 26.9492C9.5638 27.4961 10.7161 27.7695 12.0312 27.7695C13.8021 27.7695 15.1562 27.3398 16.0938 26.4805C17.0443 25.6081 17.5195 24.5143 17.5195 23.1992C17.5195 22.1185 17.1159 21.2135 16.3086 20.4844C15.5143 19.7422 14.2773 19.1042 12.5977 18.5703C11.5039 18.2188 10.4948 17.8932 9.57031 17.5938C8.65885 17.2943 7.79948 16.9883 6.99219 16.6758C5.13021 15.9336 3.74349 14.8724 2.83203 13.4922C1.93359 12.112 1.48438 10.569 1.48438 8.86328C1.48438 7.78255 1.71875 6.7474 2.1875 5.75781C2.65625 4.75521 3.33984 3.85677 4.23828 3.0625C5.09766 2.32031 6.19792 1.71484 7.53906 1.24609C8.88021 0.777344 10.3385 0.542969 11.9141 0.542969C13.4505 0.542969 14.8893 0.757812 16.2305 1.1875C17.5716 1.60417 18.6263 2.02734 19.3945 2.45703L20.5859 1.28516H22.2852L22.4414 10.7383H20.7617C20.3711 9.72266 19.9089 8.6875 19.375 7.63281C18.8542 6.5651 18.3008 5.67969 17.7148 4.97656C17.0768 4.22135 16.3411 3.6224 15.5078 3.17969C14.6745 2.72396 13.6979 2.49609 12.5781 2.49609C11.1719 2.49609 10.0195 2.89323 9.12109 3.6875C8.23568 4.48177 7.79297 5.46484 7.79297 6.63672C7.79297 7.74349 8.17708 8.64844 8.94531 9.35156C9.72656 10.0547 10.9375 10.6732 12.5781 11.207C13.5417 11.5326 14.5247 11.8581 15.5273 12.1836C16.5299 12.5091 17.4219 12.8216 18.2031 13.1211C20.0911 13.8503 21.5234 14.8594 22.5 16.1484C23.4896 17.4245 23.9844 19.013 23.9844 20.9141C23.9844 22.112 23.7044 23.2708 23.1445 24.3906C22.5846 25.5104 21.8294 26.4414 20.8789 27.1836C19.8372 28.0039 18.6328 28.6354 17.2656 29.0781C15.8984 29.5208 14.3034 29.7422 12.4805 29.7422Z" fill="white"/>

<path id="dashedPathGray" class="small-dashed-path-gray" d="M12.4805 29.7422C10.7878 29.7422 9.20573 29.5339 7.73438 29.1172C6.27604 28.7005 5.03906 28.2057 4.02344 27.6328L2.67578 29H1.01562L0.761719 18.9805H2.44141C2.81901 19.931 3.30078 20.9336 3.88672 21.9883C4.47266 23.043 5.14974 23.987 5.91797 24.8203C6.71224 25.6927 7.59766 26.4023 8.57422 26.9492C9.5638 27.4961 10.7161 27.7695 12.0312 27.7695C13.8021 27.7695 15.1562 27.3398 16.0938 26.4805C17.0443 25.6081 17.5195 24.5143 17.5195 23.1992C17.5195 22.1185 17.1159 21.2135 16.3086 20.4844C15.5143 19.7422 14.2773 19.1042 12.5977 18.5703C11.5039 18.2188 10.4948 17.8932 9.57031 17.5938C8.65885 17.2943 7.79948 16.9883 6.99219 16.6758C5.13021 15.9336 3.74349 14.8724 2.83203 13.4922C1.93359 12.112 1.48438 10.569 1.48438 8.86328C1.48438 7.78255 1.71875 6.7474 2.1875 5.75781C2.65625 4.75521 3.33984 3.85677 4.23828 3.0625C5.09766 2.32031 6.19792 1.71484 7.53906 1.24609C8.88021 0.777344 10.3385 0.542969 11.9141 0.542969C13.4505 0.542969 14.8893 0.757812 16.2305 1.1875C17.5716 1.60417 18.6263 2.02734 19.3945 2.45703L20.5859 1.28516H22.2852L22.4414 10.7383H20.7617C20.3711 9.72266 19.9089 8.6875 19.375 7.63281C18.8542 6.5651 18.3008 5.67969 17.7148 4.97656C17.0768 4.22135 16.3411 3.6224 15.5078 3.17969C14.6745 2.72396 13.6979 2.49609 12.5781 2.49609C11.1719 2.49609 10.0195 2.89323 9.12109 3.6875C8.23568 4.48177 7.79297 5.46484 7.79297 6.63672C7.79297 7.74349 8.17708 8.64844 8.94531 9.35156C9.72656 10.0547 10.9375 10.6732 12.5781 11.207C13.5417 11.5326 14.5247 11.8581 15.5273 12.1836C16.5299 12.5091 17.4219 12.8216 18.2031 13.1211C20.0911 13.8503 21.5234 14.8594 22.5 16.1484C23.4896 17.4245 23.9844 19.013 23.9844 20.9141C23.9844 22.112 23.7044 23.2708 23.1445 24.3906C22.5846 25.5104 21.8294 26.4414 20.8789 27.1836C19.8372 28.0039 18.6328 28.6354 17.2656 29.0781C15.8984 29.5208 14.3034 29.7422 12.4805 29.7422Z" fill="white"/>
</svg>
