<svg width="61" height="28" viewBox="0 0 61 30" fill="none" xmlns="http://www.w3.org/2000/svg">
<path id="dashedPath" class="xl-dashed-path" d="M33.0195 28H16.125V26.4766C17.7396 26.3854 18.7812 26.2487 19.25 26.0664C19.7188 25.8711 19.9531 25.6172 19.9531 25.3047C19.9531 25.1354 19.8685 24.8685 19.6992 24.5039C19.5299 24.1263 19.2956 23.6966 18.9961 23.2148C18.5404 22.4466 17.9284 21.4896 17.1602 20.3438C16.4049 19.1849 15.6172 17.9935 14.7969 16.7695C12.0625 19.9336 10.3242 22.0365 9.58203 23.0781C8.85286 24.1198 8.48828 24.8099 8.48828 25.1484C8.48828 25.3307 8.51432 25.487 8.56641 25.6172C8.63151 25.7344 8.78776 25.8516 9.03516 25.9688C9.21745 26.0729 9.52995 26.1706 9.97266 26.2617C10.4154 26.3529 10.9427 26.4245 11.5547 26.4766V28H0.792969V26.4766C1.35286 26.4375 1.79557 26.3789 2.12109 26.3008C2.45964 26.2227 2.79167 26.112 3.11719 25.9688C3.8724 25.6172 4.54297 25.1745 5.12891 24.6406C5.71484 24.0938 6.32031 23.4622 6.94531 22.7461C7.85677 21.7174 8.88542 20.5521 10.0312 19.25C11.1771 17.9479 12.3815 16.5612 13.6445 15.0898C12.4466 13.2799 11.2487 11.5221 10.0508 9.81641C8.85286 8.11068 7.83724 6.65885 7.00391 5.46094C6.58724 4.86198 6.06641 4.26302 5.44141 3.66406C4.82943 3.0651 4.1849 2.63542 3.50781 2.375C3.16927 2.23177 2.79167 2.11458 2.375 2.02344C1.95833 1.91927 1.45703 1.84766 0.871094 1.80859V0.285156H17.8047V1.80859C16.4896 1.86068 15.513 1.97786 14.875 2.16016C14.25 2.34245 13.9375 2.61589 13.9375 2.98047C13.9375 3.16276 13.9961 3.39714 14.1133 3.68359C14.2435 3.95703 14.4909 4.39323 14.8555 4.99219C15.168 5.51302 15.6497 6.27474 16.3008 7.27734C16.9648 8.27995 17.7135 9.41927 18.5469 10.6953C21.0078 7.76562 22.5508 5.85807 23.1758 4.97266C23.8138 4.07422 24.1328 3.46224 24.1328 3.13672C24.1328 2.75911 23.9505 2.47917 23.5859 2.29688C23.2214 2.10156 22.3685 1.9388 21.0273 1.80859V0.285156H31.8281V1.80859C31.3333 1.82161 30.9232 1.86719 30.5977 1.94531C30.2852 2.02344 29.9206 2.14714 29.5039 2.31641C28.6966 2.68099 28.0195 3.13021 27.4727 3.66406C26.9258 4.19792 26.3268 4.82292 25.6758 5.53906C24.7122 6.60677 23.7878 7.64844 22.9023 8.66406C22.0299 9.66667 20.9557 10.8971 19.6797 12.3555C21.2552 14.7253 22.6029 16.7109 23.7227 18.3125C24.8424 19.9141 25.9036 21.418 26.9062 22.8242C27.2969 23.4232 27.7982 24.0286 28.4102 24.6406C29.0352 25.2396 29.6797 25.6693 30.3438 25.9297C30.6562 26.0469 31.0143 26.1576 31.418 26.2617C31.8216 26.3659 32.3555 26.4375 33.0195 26.4766V28ZM60.3828 19.1133L59.8359 28H34.3086V26.4766C34.7643 26.4375 35.2982 26.3789 35.9102 26.3008C36.5221 26.2096 36.9258 26.125 37.1211 26.0469C37.5898 25.8646 37.9154 25.6107 38.0977 25.2852C38.2799 24.9596 38.3711 24.543 38.3711 24.0352V4.48438C38.3711 4.01562 38.2995 3.63151 38.1562 3.33203C38.013 3.01953 37.668 2.73958 37.1211 2.49219C36.7174 2.3099 36.2292 2.16667 35.6562 2.0625C35.0964 1.94531 34.6471 1.86068 34.3086 1.80859V0.285156H49.5234V1.80859C49.1068 1.84766 48.612 1.90625 48.0391 1.98438C47.4792 2.04948 46.9909 2.14714 46.5742 2.27734C46.0664 2.44661 45.7279 2.71354 45.5586 3.07812C45.3893 3.42969 45.3047 3.83333 45.3047 4.28906V22.5117C45.3047 23.3711 45.3633 24.0482 45.4805 24.543C45.5977 25.0378 45.8255 25.4023 46.1641 25.6367C46.5026 25.8841 46.9714 26.0469 47.5703 26.125C48.1823 26.1901 49.0221 26.2227 50.0898 26.2227C51.1315 26.2227 52.1406 26.1641 53.1172 26.0469C54.1068 25.9167 54.8164 25.6432 55.2461 25.2266C55.9102 24.5625 56.5872 23.6315 57.2773 22.4336C57.9805 21.2227 58.5404 20.1159 58.957 19.1133H60.3828Z" fill="white"/>

<path id="overlayPath" class="xl-overlay-path" d="M33.0195 28H16.125V26.4766C17.7396 26.3854 18.7812 26.2487 19.25 26.0664C19.7188 25.8711 19.9531 25.6172 19.9531 25.3047C19.9531 25.1354 19.8685 24.8685 19.6992 24.5039C19.5299 24.1263 19.2956 23.6966 18.9961 23.2148C18.5404 22.4466 17.9284 21.4896 17.1602 20.3438C16.4049 19.1849 15.6172 17.9935 14.7969 16.7695C12.0625 19.9336 10.3242 22.0365 9.58203 23.0781C8.85286 24.1198 8.48828 24.8099 8.48828 25.1484C8.48828 25.3307 8.51432 25.487 8.56641 25.6172C8.63151 25.7344 8.78776 25.8516 9.03516 25.9688C9.21745 26.0729 9.52995 26.1706 9.97266 26.2617C10.4154 26.3529 10.9427 26.4245 11.5547 26.4766V28H0.792969V26.4766C1.35286 26.4375 1.79557 26.3789 2.12109 26.3008C2.45964 26.2227 2.79167 26.112 3.11719 25.9688C3.8724 25.6172 4.54297 25.1745 5.12891 24.6406C5.71484 24.0938 6.32031 23.4622 6.94531 22.7461C7.85677 21.7174 8.88542 20.5521 10.0312 19.25C11.1771 17.9479 12.3815 16.5612 13.6445 15.0898C12.4466 13.2799 11.2487 11.5221 10.0508 9.81641C8.85286 8.11068 7.83724 6.65885 7.00391 5.46094C6.58724 4.86198 6.06641 4.26302 5.44141 3.66406C4.82943 3.0651 4.1849 2.63542 3.50781 2.375C3.16927 2.23177 2.79167 2.11458 2.375 2.02344C1.95833 1.91927 1.45703 1.84766 0.871094 1.80859V0.285156H17.8047V1.80859C16.4896 1.86068 15.513 1.97786 14.875 2.16016C14.25 2.34245 13.9375 2.61589 13.9375 2.98047C13.9375 3.16276 13.9961 3.39714 14.1133 3.68359C14.2435 3.95703 14.4909 4.39323 14.8555 4.99219C15.168 5.51302 15.6497 6.27474 16.3008 7.27734C16.9648 8.27995 17.7135 9.41927 18.5469 10.6953C21.0078 7.76562 22.5508 5.85807 23.1758 4.97266C23.8138 4.07422 24.1328 3.46224 24.1328 3.13672C24.1328 2.75911 23.9505 2.47917 23.5859 2.29688C23.2214 2.10156 22.3685 1.9388 21.0273 1.80859V0.285156H31.8281V1.80859C31.3333 1.82161 30.9232 1.86719 30.5977 1.94531C30.2852 2.02344 29.9206 2.14714 29.5039 2.31641C28.6966 2.68099 28.0195 3.13021 27.4727 3.66406C26.9258 4.19792 26.3268 4.82292 25.6758 5.53906C24.7122 6.60677 23.7878 7.64844 22.9023 8.66406C22.0299 9.66667 20.9557 10.8971 19.6797 12.3555C21.2552 14.7253 22.6029 16.7109 23.7227 18.3125C24.8424 19.9141 25.9036 21.418 26.9062 22.8242C27.2969 23.4232 27.7982 24.0286 28.4102 24.6406C29.0352 25.2396 29.6797 25.6693 30.3438 25.9297C30.6562 26.0469 31.0143 26.1576 31.418 26.2617C31.8216 26.3659 32.3555 26.4375 33.0195 26.4766V28ZM60.3828 19.1133L59.8359 28H34.3086V26.4766C34.7643 26.4375 35.2982 26.3789 35.9102 26.3008C36.5221 26.2096 36.9258 26.125 37.1211 26.0469C37.5898 25.8646 37.9154 25.6107 38.0977 25.2852C38.2799 24.9596 38.3711 24.543 38.3711 24.0352V4.48438C38.3711 4.01562 38.2995 3.63151 38.1562 3.33203C38.013 3.01953 37.668 2.73958 37.1211 2.49219C36.7174 2.3099 36.2292 2.16667 35.6562 2.0625C35.0964 1.94531 34.6471 1.86068 34.3086 1.80859V0.285156H49.5234V1.80859C49.1068 1.84766 48.612 1.90625 48.0391 1.98438C47.4792 2.04948 46.9909 2.14714 46.5742 2.27734C46.0664 2.44661 45.7279 2.71354 45.5586 3.07812C45.3893 3.42969 45.3047 3.83333 45.3047 4.28906V22.5117C45.3047 23.3711 45.3633 24.0482 45.4805 24.543C45.5977 25.0378 45.8255 25.4023 46.1641 25.6367C46.5026 25.8841 46.9714 26.0469 47.5703 26.125C48.1823 26.1901 49.0221 26.2227 50.0898 26.2227C51.1315 26.2227 52.1406 26.1641 53.1172 26.0469C54.1068 25.9167 54.8164 25.6432 55.2461 25.2266C55.9102 24.5625 56.5872 23.6315 57.2773 22.4336C57.9805 21.2227 58.5404 20.1159 58.957 19.1133H60.3828Z" fill="white"/>

<path id="dashedPathGray" class="xl-dashed-path-gray" d="M33.0195 28H16.125V26.4766C17.7396 26.3854 18.7812 26.2487 19.25 26.0664C19.7188 25.8711 19.9531 25.6172 19.9531 25.3047C19.9531 25.1354 19.8685 24.8685 19.6992 24.5039C19.5299 24.1263 19.2956 23.6966 18.9961 23.2148C18.5404 22.4466 17.9284 21.4896 17.1602 20.3438C16.4049 19.1849 15.6172 17.9935 14.7969 16.7695C12.0625 19.9336 10.3242 22.0365 9.58203 23.0781C8.85286 24.1198 8.48828 24.8099 8.48828 25.1484C8.48828 25.3307 8.51432 25.487 8.56641 25.6172C8.63151 25.7344 8.78776 25.8516 9.03516 25.9688C9.21745 26.0729 9.52995 26.1706 9.97266 26.2617C10.4154 26.3529 10.9427 26.4245 11.5547 26.4766V28H0.792969V26.4766C1.35286 26.4375 1.79557 26.3789 2.12109 26.3008C2.45964 26.2227 2.79167 26.112 3.11719 25.9688C3.8724 25.6172 4.54297 25.1745 5.12891 24.6406C5.71484 24.0938 6.32031 23.4622 6.94531 22.7461C7.85677 21.7174 8.88542 20.5521 10.0312 19.25C11.1771 17.9479 12.3815 16.5612 13.6445 15.0898C12.4466 13.2799 11.2487 11.5221 10.0508 9.81641C8.85286 8.11068 7.83724 6.65885 7.00391 5.46094C6.58724 4.86198 6.06641 4.26302 5.44141 3.66406C4.82943 3.0651 4.1849 2.63542 3.50781 2.375C3.16927 2.23177 2.79167 2.11458 2.375 2.02344C1.95833 1.91927 1.45703 1.84766 0.871094 1.80859V0.285156H17.8047V1.80859C16.4896 1.86068 15.513 1.97786 14.875 2.16016C14.25 2.34245 13.9375 2.61589 13.9375 2.98047C13.9375 3.16276 13.9961 3.39714 14.1133 3.68359C14.2435 3.95703 14.4909 4.39323 14.8555 4.99219C15.168 5.51302 15.6497 6.27474 16.3008 7.27734C16.9648 8.27995 17.7135 9.41927 18.5469 10.6953C21.0078 7.76562 22.5508 5.85807 23.1758 4.97266C23.8138 4.07422 24.1328 3.46224 24.1328 3.13672C24.1328 2.75911 23.9505 2.47917 23.5859 2.29688C23.2214 2.10156 22.3685 1.9388 21.0273 1.80859V0.285156H31.8281V1.80859C31.3333 1.82161 30.9232 1.86719 30.5977 1.94531C30.2852 2.02344 29.9206 2.14714 29.5039 2.31641C28.6966 2.68099 28.0195 3.13021 27.4727 3.66406C26.9258 4.19792 26.3268 4.82292 25.6758 5.53906C24.7122 6.60677 23.7878 7.64844 22.9023 8.66406C22.0299 9.66667 20.9557 10.8971 19.6797 12.3555C21.2552 14.7253 22.6029 16.7109 23.7227 18.3125C24.8424 19.9141 25.9036 21.418 26.9062 22.8242C27.2969 23.4232 27.7982 24.0286 28.4102 24.6406C29.0352 25.2396 29.6797 25.6693 30.3438 25.9297C30.6562 26.0469 31.0143 26.1576 31.418 26.2617C31.8216 26.3659 32.3555 26.4375 33.0195 26.4766V28ZM60.3828 19.1133L59.8359 28H34.3086V26.4766C34.7643 26.4375 35.2982 26.3789 35.9102 26.3008C36.5221 26.2096 36.9258 26.125 37.1211 26.0469C37.5898 25.8646 37.9154 25.6107 38.0977 25.2852C38.2799 24.9596 38.3711 24.543 38.3711 24.0352V4.48438C38.3711 4.01562 38.2995 3.63151 38.1562 3.33203C38.013 3.01953 37.668 2.73958 37.1211 2.49219C36.7174 2.3099 36.2292 2.16667 35.6562 2.0625C35.0964 1.94531 34.6471 1.86068 34.3086 1.80859V0.285156H49.5234V1.80859C49.1068 1.84766 48.612 1.90625 48.0391 1.98438C47.4792 2.04948 46.9909 2.14714 46.5742 2.27734C46.0664 2.44661 45.7279 2.71354 45.5586 3.07812C45.3893 3.42969 45.3047 3.83333 45.3047 4.28906V22.5117C45.3047 23.3711 45.3633 24.0482 45.4805 24.543C45.5977 25.0378 45.8255 25.4023 46.1641 25.6367C46.5026 25.8841 46.9714 26.0469 47.5703 26.125C48.1823 26.1901 49.0221 26.2227 50.0898 26.2227C51.1315 26.2227 52.1406 26.1641 53.1172 26.0469C54.1068 25.9167 54.8164 25.6432 55.2461 25.2266C55.9102 24.5625 56.5872 23.6315 57.2773 22.4336C57.9805 21.2227 58.5404 20.1159 58.957 19.1133H60.3828Z" fill="white"/>
</svg>
